<!-- Original: 
  height="48"
  width="48"
  viewBox="0 96 960 960" 
-->
<!-- Mods:
  Add <rect> for background
  Make image 512 to save as ICNS file format.
  Add padding to viewbox: 960 + 50 = 1010 
-->

<svg xmlns="http://www.w3.org/2000/svg" x="10" height="512" width="512" viewBox="0 96 1010 1010" fill="#82cfff">
<g transform="translate(50,50)" >
<rect x="0" y="96" height="960" width="960" fill="#000" rx="200"/>
<path d="M480 936v-71l216-216 71 71-216 216h-71ZM120 726v-60h300v60H120Zm690-49-71-71 29-29q8-8 21-8t21 8l29 29q8 8 8 21t-8 21l-29 29ZM120 561v-60h470v60H120Zm0-165v-60h470v60H120Z"/>
</g>
</svg>
